<?xml version="1.0" standalone="no"?><!DOCTYPE svg PUBLIC "-//W3C//DTD SVG 1.1//EN" "http://www.w3.org/Graphics/SVG/1.1/DTD/svg11.dtd"><svg t="1695180107450" class="icon" viewBox="0 0 1024 1024" version="1.1" xmlns="http://www.w3.org/2000/svg" p-id="1383" width="16" height="16" xmlns:xlink="http://www.w3.org/1999/xlink"><path d="M494.08 867.84c-209.408 0-379.392-169.984-379.392-379.392s170.496-379.904 379.392-379.904 379.904 170.496 379.904 379.392-170.496 379.904-379.904 379.904z m0-697.344c-175.104 0-317.44 142.336-317.44 317.44s142.336 317.44 317.44 317.44 317.44-142.336 317.44-317.44-142.336-317.44-317.44-317.44z" fill="#8e8e94" p-id="1384"></path><path d="M451.072 655.872c-97.28 0-175.616-78.848-175.616-175.616 0-18.432 14.848-33.28 33.28-33.28s33.28 14.848 33.28 33.28c0 59.904 49.152 109.056 109.056 109.056 18.432 0 33.28 14.848 33.28 33.28 0 17.92-14.848 33.28-33.28 33.28zM876.544 915.456c-8.192 0-16.384-3.072-23.04-9.216l-128.512-125.952c-13.312-13.312-13.824-34.816-1.536-48.64 12.8-13.824 33.28-14.336 46.592-1.536l128.512 125.952c13.312 13.312 13.824 34.816 1.536 48.64-6.144 7.68-15.36 10.752-23.552 10.752z" fill="#8e8e94" p-id="1385"></path></svg>